HIERARCHY
ROOT Hips
{
  OFFSET 5.72205e-005 65.662 3.42586
  CHANNELS 6 Xposition Yposition Zposition Zrotation Xrotation Yrotation
  JOINT Chest
  {
    OFFSET 0 8.7983 -4.7612
    CHANNELS 6 Xposition Yposition Zposition Zrotation Xrotation Yrotation
    JOINT Chest2
    {
      OFFSET 0 8.0291 0.4195
      CHANNELS 6 Xposition Yposition Zposition Zrotation Xrotation Yrotation
      JOINT Chest3
      {
        OFFSET 0 9.9351 -2.2114
        CHANNELS 6 Xposition Yposition Zposition Zrotation Xrotation Yrotation
        JOINT Neck
        {
          OFFSET 0 22.3885 -0.4656
          CHANNELS 6 Xposition Yposition Zposition Zrotation Xrotation Yrotation
          JOINT Head
          {
            OFFSET -0.0001 12.643 3.4389
            CHANNELS 6 Xposition Yposition Zposition Zrotation Xrotation Yrotation
            End Site
            {
              OFFSET 0.0001 17.6655 0.5274
            }
          }
        }
        JOINT LeftCollar
        {
          OFFSET 2.2603 21.606 7.4023
          CHANNELS 6 Xposition Yposition Zposition Zrotation Xrotation Yrotation
          JOINT LeftShoulder
          {
            OFFSET 13.5163 -1.1332 -5.0146
            CHANNELS 6 Xposition Yposition Zposition Zrotation Xrotation Yrotation
            JOINT LeftElbow
            {
              OFFSET -0.0995 -28.05 -0.2431
              CHANNELS 6 Xposition Yposition Zposition Zrotation Xrotation Yrotation
              JOINT LeftWrist
              {
                OFFSET 0.0679 -23.3996 -0.1402
                CHANNELS 6 Xposition Yposition Zposition Zrotation Xrotation Yrotation
                JOINT LeftFinger1
                {
                  OFFSET 0.7932 -9.069 2.5189
                  CHANNELS 6 Xposition Yposition Zposition Zrotation Xrotation Yrotation
                  JOINT LeftFinger11
                  {
                    OFFSET -0.8272 -3.3923 0.5977
                    CHANNELS 6 Xposition Yposition Zposition Zrotation Xrotation Yrotation
                    JOINT LeftFinger12
                    {
                      OFFSET -0.5649 -2.3158 0.4082
                      CHANNELS 6 Xposition Yposition Zposition Zrotation Xrotation Yrotation
                      End Site
                      {
                        OFFSET -0.4919 -1.6479 0.2673
                      }
                    }
                  }
                }
                JOINT LeftFinger2
                {
                  OFFSET 0.9159 -9.2044 0.2193
                  CHANNELS 6 Xposition Yposition Zposition Zrotation Xrotation Yrotation
                  JOINT LeftFinger21
                  {
                    OFFSET 0.0117 -4.1944 -0.0248
                    CHANNELS 6 Xposition Yposition Zposition Zrotation Xrotation Yrotation
                    JOINT LeftFinger22
                    {
                      OFFSET 0.0071 -2.3249 -0.0142
                      CHANNELS 6 Xposition Yposition Zposition Zrotation Xrotation Yrotation
                      End Site
                      {
                        OFFSET -0.1475 -2.0882 0.0028
                      }
                    }
                  }
                }
                JOINT LeftFinger3
                {
                  OFFSET 0.6113 -8.7231 -2.0637
                  CHANNELS 6 Xposition Yposition Zposition Zrotation Xrotation Yrotation
                  JOINT LeftFinger31
                  {
                    OFFSET -0.1927 -3.8059 -0.2383
                    CHANNELS 6 Xposition Yposition Zposition Zrotation Xrotation Yrotation
                    JOINT LeftFinger32
                    {
                      OFFSET -0.1091 -2.1688 -0.1362
                      CHANNELS 6 Xposition Yposition Zposition Zrotation Xrotation Yrotation
                      End Site
                      {
                        OFFSET -0.2358 -1.9176 -0.0906
                      }
                    }
                  }
                }
                JOINT LeftFinger4
                {
                  OFFSET -0.6151 -8.0947 -3.5641
                  CHANNELS 6 Xposition Yposition Zposition Zrotation Xrotation Yrotation
                  JOINT LeftFinger41
                  {
                    OFFSET -0.4882 -2.341 -0.6462
                    CHANNELS 6 Xposition Yposition Zposition Zrotation Xrotation Yrotation
                    JOINT LeftFinger42
                    {
                      OFFSET -0.3575 -1.7167 -0.4742
                      CHANNELS 6 Xposition Yposition Zposition Zrotation Xrotation Yrotation
                      End Site
                      {
                        OFFSET -0.4187 -1.5237 -0.3496
                      }
                    }
                  }
                }
                JOINT LeftFinger0
                {
                  OFFSET -1.42 -1.8761 1.4223
                  CHANNELS 6 Xposition Yposition Zposition Zrotation Xrotation Yrotation
                  JOINT LeftFinger01
                  {
                    OFFSET -1.1471 -3.4929 2.6334
                    CHANNELS 6 Xposition Yposition Zposition Zrotation Xrotation Yrotation
                    JOINT LeftFinger02
                    {
                      OFFSET -0.823 -2.3 1.6571
                      CHANNELS 6 Xposition Yposition Zposition Zrotation Xrotation Yrotation
                      End Site
                      {
                        OFFSET -0.5822 -1.6914 1.1582
                      }
                    }
                  }
                }
              }
            }
          }
        }
        JOINT RightCollar
        {
          OFFSET -2.2603 21.606 7.4023
          CHANNELS 6 Xposition Yposition Zposition Zrotation Xrotation Yrotation
          JOINT RightShoulder
          {
            OFFSET -13.5187 -1.1334 -5.0155
            CHANNELS 6 Xposition Yposition Zposition Zrotation Xrotation Yrotation
            JOINT RightElbow
            {
              OFFSET 0.0994 -28.0499 -0.2431
              CHANNELS 6 Xposition Yposition Zposition Zrotation Xrotation Yrotation
              JOINT RightWrist
              {
                OFFSET -0.0679 -23.3996 -0.1402
                CHANNELS 6 Xposition Yposition Zposition Zrotation Xrotation Yrotation
                JOINT RightFinger1
                {
                  OFFSET -0.7932 -9.0691 2.5189
                  CHANNELS 6 Xposition Yposition Zposition Zrotation Xrotation Yrotation
                  JOINT RightFinger11
                  {
                    OFFSET 0.8272 -3.3923 0.5977
                    CHANNELS 6 Xposition Yposition Zposition Zrotation Xrotation Yrotation
                    JOINT RightFinger12
                    {
                      OFFSET 0.565 -2.3158 0.4082
                      CHANNELS 6 Xposition Yposition Zposition Zrotation Xrotation Yrotation
                      End Site
                      {
                        OFFSET 0.4919 -1.6479 0.2673
                      }
                    }
                  }
                }
                JOINT RightFinger2
                {
                  OFFSET -0.916 -9.2044 0.2193
                  CHANNELS 6 Xposition Yposition Zposition Zrotation Xrotation Yrotation
                  JOINT RightFinger21
                  {
                    OFFSET -0.0117 -4.1944 -0.0248
                    CHANNELS 6 Xposition Yposition Zposition Zrotation Xrotation Yrotation
                    JOINT RightFinger22
                    {
                      OFFSET -0.0071 -2.3249 -0.0142
                      CHANNELS 6 Xposition Yposition Zposition Zrotation Xrotation Yrotation
                      End Site
                      {
                        OFFSET 0.1475 -2.0882 0.0028
                      }
                    }
                  }
                }
                JOINT RightFinger3
                {
                  OFFSET -0.6113 -8.7231 -2.0637
                  CHANNELS 6 Xposition Yposition Zposition Zrotation Xrotation Yrotation
                  JOINT RightFinger31
                  {
                    OFFSET 0.1927 -3.8059 -0.2383
                    CHANNELS 6 Xposition Yposition Zposition Zrotation Xrotation Yrotation
                    JOINT RightFinger32
                    {
                      OFFSET 0.1091 -2.1688 -0.1362
                      CHANNELS 6 Xposition Yposition Zposition Zrotation Xrotation Yrotation
                      End Site
                      {
                        OFFSET 0.2358 -1.9176 -0.0906
                      }
                    }
                  }
                }
                JOINT RightFinger4
                {
                  OFFSET 0.6151 -8.0947 -3.564
                  CHANNELS 6 Xposition Yposition Zposition Zrotation Xrotation Yrotation
                  JOINT RightFinger41
                  {
                    OFFSET 0.4882 -2.341 -0.6462
                    CHANNELS 6 Xposition Yposition Zposition Zrotation Xrotation Yrotation
                    JOINT RightFinger42
                    {
                      OFFSET 0.3574 -1.7166 -0.4742
                      CHANNELS 6 Xposition Yposition Zposition Zrotation Xrotation Yrotation
                      End Site
                      {
                        OFFSET 0.4187 -1.5237 -0.3496
                      }
                    }
                  }
                }
                JOINT RightFinger0
                {
                  OFFSET 1.4199 -1.8761 1.4221
                  CHANNELS 6 Xposition Yposition Zposition Zrotation Xrotation Yrotation
                  JOINT RightFinger01
                  {
                    OFFSET 1.1472 -3.4929 2.6336
                    CHANNELS 6 Xposition Yposition Zposition Zrotation Xrotation Yrotation
                    JOINT RightFinger02
                    {
                      OFFSET 0.8229 -2.3 1.6571
                      CHANNELS 6 Xposition Yposition Zposition Zrotation Xrotation Yrotation
                      End Site
                      {
                        OFFSET 0.5822 -1.6914 1.1582
                      }
                    }
                  }
                }
              }
            }
          }
        }
      }
    }
  }
  JOINT RightHip
  {
    OFFSET -9.412 3.9771 -0.7758
    CHANNELS 6 Xposition Yposition Zposition Zrotation Xrotation Yrotation
    JOINT RightKnee
    {
      OFFSET -0.7531 -40.938 0
      CHANNELS 6 Xposition Yposition Zposition Zrotation Xrotation Yrotation
      JOINT RightAnkle
      {
        OFFSET 0 -40.1986 0
        CHANNELS 6 Xposition Yposition Zposition Zrotation Xrotation Yrotation
        JOINT RightToe
        {
          OFFSET 0 -4.4182 9.239
          CHANNELS 6 Xposition Yposition Zposition Zrotation Xrotation Yrotation
          End Site
          {
            OFFSET 0 0 6.1981
          }
        }
      }
    }
  }
  JOINT LeftHip
  {
    OFFSET 9.4119 3.9773 -0.7758
    CHANNELS 6 Xposition Yposition Zposition Zrotation Xrotation Yrotation
    JOINT LeftKnee
    {
      OFFSET 0.7532 -40.9383 0
      CHANNELS 6 Xposition Yposition Zposition Zrotation Xrotation Yrotation
      JOINT LeftAnkle
      {
        OFFSET 0 -40.1986 0
        CHANNELS 6 Xposition Yposition Zposition Zrotation Xrotation Yrotation
        JOINT LeftToe
        {
          OFFSET 0 -4.4182 9.239
          CHANNELS 6 Xposition Yposition Zposition Zrotation Xrotation Yrotation
          End Site
          {
            OFFSET 0 0 6.1981
          }
        }
      }
    }
  }
}
MOTION
Frames:	4
Frame Time:	0.0333333
5.72205e-005 65.662 3.42586 0 0 -0 0 8.7983 -4.7612 0 0 -0 0 8.0291 0.4195 0 0 -0 0 9.9351 -2.2114 0 0 -0 0 22.3885 -0.4656 0 0 -0 -0.0001 12.643 3.4389 0 0 -0 2.2603 21.606 7.4023 0 0 -12.5014 13.5163 -1.1332 -5.0146 88.1196 14.2451 10.6914 -0.0995 -28.05 -0.2431 -0.00160068 -0.00239207 0.000740045 0.0679 -23.3996 -0.1402 -8.4365e-005 7.00714e-005 -9.52055e-007 0.7932 -9.069 2.5189 9.93923e-017 -1.98785e-016 -1.59028e-015 -0.8272 -3.3923 0.5977 9.93923e-017 -5.96354e-016 -1.59028e-015 -0.5649 -2.3158 0.4082 -9.93923e-017 -5.96354e-016 -1.59028e-015 0.9159 -9.2044 0.2193 9.93923e-017 -1.98785e-016 -1.59028e-015 0.0117 -4.1944 -0.0248 -0.0128176 0.00232552 8.52707e-005 0.0071 -2.3249 -0.0142 9.93923e-017 5.96354e-016 -0 0.6113 -8.7231 -2.0637 9.93923e-017 -1.98785e-016 -1.59028e-015 -0.1927 -3.8059 -0.2383 -0.0160551 0.00299681 0.000857156 -0.1091 -2.1688 -0.1362 -2.48481e-016 0 3.18055e-015 -0.6151 -8.0947 -3.5641 9.93923e-017 -1.98785e-016 -1.59028e-015 -0.4882 -2.341 -0.6462 -0.0125865 0.0031206 0.00282719 -0.3575 -1.7167 -0.4742 0 1.98785e-016 -0 -1.42 -1.8761 1.4223 9.93923e-017 -1.98785e-016 -1.59028e-015 -1.1471 -3.4929 2.6334 9.93923e-017 -5.96354e-016 -1.59028e-015 -0.823 -2.3 1.6571 -9.93923e-017 -5.96354e-016 -1.59028e-015 -2.2603 21.606 7.4023 -0.865644 0.16582 7.03859 -13.5187 -1.1334 -5.0155 -88.0329 10.2057 -10.5567 0.0994 -28.0499 -0.2431 0.0015593 -0.00248883 -0.000788628 -0.0679 -23.3996 -0.1402 7.87605e-005 4.10553e-005 1.24965e-005 -0.7932 -9.0691 2.5189 -3.97569e-016 -7.95139e-016 3.18055e-015 0.8272 -3.3923 0.5977 -1.98785e-016 -3.97569e-016 3.18055e-015 0.565 -2.3158 0.4082 -1.98785e-016 0 3.18055e-015 -0.916 -9.2044 0.2193 -3.97569e-016 -7.95139e-016 3.18055e-015 -0.0117 -4.1944 -0.0248 0.0129473 0.00231697 -8.70038e-005 -0.0071 -2.3249 -0.0142 9.93923e-017 -7.95139e-016 1.59028e-015 -0.6113 -8.7231 -2.0637 -3.97569e-016 -7.95139e-016 3.18055e-015 0.1927 -3.8059 -0.2383 0.0163314 0.00303369 -0.000872333 0.1091 -2.1688 -0.1362 3.97569e-016 7.95139e-016 -3.18055e-015 0.6151 -8.0947 -3.564 -3.97569e-016 -7.95139e-016 3.18055e-015 0.4882 -2.341 -0.6462 0.0145763 0.00367772 -0.00326275 0.3574 -1.7166 -0.4742 9.93923e-017 -3.97569e-016 -0 1.4199 -1.8761 1.4221 -3.97569e-016 -7.95139e-016 3.18055e-015 1.1472 -3.4929 2.6336 -1.98785e-016 -3.97569e-016 3.18055e-015 0.8229 -2.3 1.6571 -1.98785e-016 0 3.18055e-015 -9.412 3.9771 -0.7758 3.42482 1.32465 -0.0626183 -0.7531 -40.938 0 0.000117508 0.717283 0.000978199 0 -40.1986 0 -3.4257 -2.04197 -0.0604716 8.88178e-016 -4.4182 9.239 6.47761e-025 0 -0 9.4119 3.9773 -0.7758 -3.42483 1.34017 0.0627307 0.7532 -40.9383 -2.22045e-016 -0.000193936 0.682302 -0.0013703 -8.88179e-016 -40.1986 0 3.42574 -2.02253 0.0595886 -8.88178e-016 -4.4182 9.239 -8.45714e-024 0 -7.40531e-025 
39.9017 -5.63913 47.5957 -1.35639e-007 78.9991 1.62009e-007 0 8.7983 -4.7612 -0.304427 0.671672 -0.215631 0 8.0291 0.4195 -0.606383 1.34446 -0.427731 7.10543e-015 9.9351 -2.2114 -0.606382 1.34447 -0.427731 7.10543e-015 22.3885 -0.4656 -0.00315331 1.99485 -44.0016 -0.0001 12.643 3.4389 -0.0581393 -15.3423 -26.0165 2.2603 21.606 7.4023 -7.85111 0.498188 -18.0938 13.5163 -1.1332 -5.0146 60.5739 4.2223 62.4155 -0.0995 -28.05 -0.2431 45.1098 -50.0961 24.5113 0.0679 -23.3996 -0.1402 15.8395 -32.1579 25.7489 0.7932 -9.069 2.5189 7.53169e-006 9.22452e-006 3.43571e-006 -0.8272 -3.3923 0.5977 3.20274e-006 6.01609e-006 -2.75683e-006 -0.5649 -2.3158 0.4082 -7.1145e-006 8.71921e-006 5.69848e-006 0.9159 -9.2044 0.2193 7.53169e-006 9.22452e-006 3.43571e-006 0.0117 -4.1944 -0.0248 -0.0128281 0.00233321 7.68253e-005 0.0071 -2.3249 -0.0142 1.59122e-006 3.35716e-007 -2.29103e-006 0.6113 -8.7231 -2.0637 7.53169e-006 9.22452e-006 3.43571e-006 -0.1927 -3.8059 -0.2383 -0.0160424 0.0029893 0.000855817 -0.1091 -2.1688 -0.1362 2.47499e-006 1.10662e-005 -4.39723e-006 -0.6151 -8.0947 -3.5641 7.53169e-006 9.22452e-006 3.43571e-006 -0.4882 -2.341 -0.6462 -0.0125667 0.00311831 0.00281901 -0.3575 -1.7167 -0.4742 -5.4645e-006 9.89442e-006 2.76657e-006 -1.42 -1.8761 1.4223 7.53169e-006 9.22452e-006 3.43571e-006 -1.1471 -3.4929 2.6334 3.20274e-006 6.01609e-006 -2.75683e-006 -0.823 -2.3 1.6571 -7.1145e-006 8.71921e-006 5.69848e-006 -2.2603 21.606 7.4023 49.0651 -10.3859 -2.93551 -13.5187 -1.1334 -5.0155 -54.9878 -8.98969 -55.408 0.0994 -28.0499 -0.2431 -42.0089 -41.376 -26.2285 -0.0679 -23.3996 -0.1402 3.54609 -32.3886 -4.29911 -0.7932 -9.0691 2.5189 -9.45584e-008 8.45791e-007 -1.06147e-006 0.8272 -3.3923 0.5977 -5.67351e-008 -3.35162e-009 -6.36879e-007 0.565 -2.3158 0.4082 -7.56467e-008 4.25548e-007 -8.49172e-007 -0.916 -9.2044 0.2193 -9.45584e-008 8.45791e-007 -1.06147e-006 -0.0117 -4.1944 -0.0248 0.0129603 0.00231736 -8.67875e-005 -0.0071 -2.3249 -0.0142 -3.67732e-007 8.31624e-007 6.73192e-007 -0.6113 -8.7231 -2.0637 -9.45584e-008 8.45791e-007 -1.06147e-006 0.1927 -3.8059 -0.2383 0.0163392 0.00303452 -0.00087316 0.1091 -2.1688 -0.1362 1.14733e-007 1.52414e-006 1.11778e-006 0.6151 -8.0947 -3.564 -9.45584e-008 8.45791e-007 -1.06147e-006 0.4882 -2.341 -0.6462 0.0145665 0.00367565 -0.00325932 0.3574 -1.7166 -0.4742 -1.14301e-015 1.27498e-006 1.59028e-015 1.4199 -1.8761 1.4221 -9.45584e-008 8.45791e-007 -1.06147e-006 1.1472 -3.4929 2.6336 -5.67351e-008 -3.35162e-009 -6.36879e-007 0.8229 -2.3 1.6571 -7.56467e-008 4.25548e-007 -8.49172e-007 -9.412 3.9771 -0.7758 -5.27389 3.85843 -43.4998 -0.7531 -40.938 3.55271e-015 7.38481 24.4336 -22.0011 0 -40.1986 3.55271e-015 -2.39659 38.3826 -3.87272 -3.55271e-015 -4.4182 9.239 1.43551e-006 2.63573e-006 2.1159e-006 9.4119 3.9773 -0.7758 3.13987 9.39202 46.2782 0.7532 -40.9383 7.10543e-015 -4.87473 10.659 20.692 0 -40.1986 7.10543e-015 4.96935 35.8613 -4.68168 0 -4.4182 9.239 -1.36474e-005 -6.08874e-006 1.6986e-006 
39.9004 -5.67477 47.6238 -1.18359e-007 78.6659 1.44864e-007 0 8.7983 -4.7612 -0.323076 0.934019 -0.211877 1.42109e-014 8.0291 0.4195 -0.64282 1.8692 -0.418564 0 9.9351 -2.2114 -0.642822 1.86921 -0.418566 7.10543e-015 22.3885 -0.4656 -0.00296475 1.38421 -44.0016 -0.0001 12.643 3.4389 -0.331168 -15.531 -26.6507 2.2603 21.606 7.4023 -7.37951 1.47663 -18.1905 13.5163 -1.1332 -5.0146 60.8881 3.96767 62.39 -0.0995 -28.05 -0.2431 45.0923 -50.0833 24.4988 0.0679 -23.3996 -0.1402 17.7165 -31.2832 27.137 0.7932 -9.069 2.5189 0 6.36111e-015 -0 -0.8272 -3.3923 0.5977 -0 0 3.97569e-016 -0.5649 -2.3158 0.4082 -1.76556e-031 1.27222e-014 7.95139e-016 0.9159 -9.2044 0.2193 0 6.36111e-015 -0 0.0117 -4.1944 -0.0248 -0.0128299 0.0023248 8.67741e-005 0.0071 -2.3249 -0.0142 3.97569e-015 -6.36111e-015 -7.95139e-016 0.6113 -8.7231 -2.0637 0 6.36111e-015 -0 -0.1927 -3.8059 -0.2383 -0.0160368 0.00298525 0.000857913 -0.1091 -2.1688 -0.1362 1.04402e-007 3.94947e-006 -1.27087e-006 -0.6151 -8.0947 -3.5641 0 6.36111e-015 -0 -0.4882 -2.341 -0.6462 -0.0126441 0.00314539 0.00283843 -0.3575 -1.7167 -0.4742 4.35962e-006 -5.25576e-007 6.17208e-006 -1.42 -1.8761 1.4223 0 6.36111e-015 -0 -1.1471 -3.4929 2.6334 -0 0 3.97569e-016 -0.823 -2.3 1.6571 -1.76556e-031 1.27222e-014 7.95139e-016 -2.2603 21.606 7.4023 48.8634 -10.7492 -1.40224 -13.5187 -1.1334 -5.0155 -55.0849 -8.01836 -55.0915 0.0994 -28.0499 -0.2431 -41.3873 -41.1997 -25.7217 -0.0679 -23.3996 -0.1402 2.11328 -32.39 -5.55301 -0.7932 -9.0691 2.5189 1.2921e-015 7.95139e-016 3.97569e-016 0.8272 -3.3923 0.5977 5.96354e-016 0 3.97569e-016 0.565 -2.3158 0.4082 1.14301e-015 -7.95139e-016 3.97569e-016 -0.916 -9.2044 0.2193 1.2921e-015 7.95139e-016 3.97569e-016 -0.0117 -4.1944 -0.0248 0.0129504 0.00231647 -8.60057e-005 -0.0071 -2.3249 -0.0142 -8.44835e-016 1.59028e-015 -0 -0.6113 -8.7231 -2.0637 1.2921e-015 7.95139e-016 3.97569e-016 0.1927 -3.8059 -0.2383 0.0163328 0.00303157 -0.000874447 0.1091 -2.1688 -0.1362 -6.95746e-016 0 -0 0.6151 -8.0947 -3.564 1.2921e-015 7.95139e-016 3.97569e-016 0.4882 -2.341 -0.6462 0.0145648 0.00367412 -0.0032582 0.3574 -1.7166 -0.4742 -4.96962e-017 -1.59028e-015 -3.97569e-016 1.4199 -1.8761 1.4221 1.2921e-015 7.95139e-016 3.97569e-016 1.1472 -3.4929 2.6336 5.96354e-016 0 3.97569e-016 0.8229 -2.3 1.6571 1.14301e-015 -7.95139e-016 3.97569e-016 -9.412 3.9771 -0.7758 -5.48482 4.48094 -44.5881 -0.7531 -40.938 -1.77636e-015 7.38476 24.4249 -22.0503 3.55271e-015 -40.1986 3.55271e-015 -3.67758 38.3467 -2.32996 0 -4.4182 9.239 1.43541e-006 3.32321e-006 2.11548e-006 9.4119 3.9773 -0.7758 3.06805 9.9639 46.4528 0.7532 -40.9383 0 -5.04947 10.2373 20.7077 -1.77636e-015 -40.1986 0 5.30355 36.0392 -4.95694 0 -4.4182 9.239 -5.23282e-006 5.05936e-006 5.48558e-006 
39.8992 -5.71023 47.6521 2.08857e-007 78.3326 -1.29648e-007 -7.10543e-015 8.7983 -4.7612 -0.341784 1.19927 -0.208425 7.10543e-015 8.0291 0.4195 -0.679425 2.39977 -0.409825 7.10543e-015 9.9351 -2.2114 -0.679425 2.39978 -0.409824 -7.10543e-015 22.3885 -0.4656 -0.00288429 0.773621 -44.0016 -0.0001 12.643 3.4389 -0.606765 -15.7168 -27.2869 2.2603 21.606 7.4023 -6.9054 2.456 -18.2955 13.5163 -1.1332 -5.0146 61.2021 3.71344 62.366 -0.0995 -28.05 -0.2431 45.0746 -50.0709 24.4866 0.0679 -23.3996 -0.1402 19.5589 -30.3667 28.4841 0.7932 -9.069 2.5189 1.59028e-015 3.18055e-015 -1.98785e-015 -0.8272 -3.3923 0.5977 2.38542e-015 0 -3.18055e-015 -0.5649 -2.3158 0.4082 1.59028e-015 3.18055e-015 1.98785e-015 0.9159 -9.2044 0.2193 1.59028e-015 3.18055e-015 -1.98785e-015 0.0117 -4.1944 -0.0248 -0.0128315 0.00232734 8.0633e-005 0.0071 -2.3249 -0.0142 4.5545e-006 4.44843e-006 1.76974e-006 0.6113 -8.7231 -2.0637 1.59028e-015 3.18055e-015 -1.98785e-015 -0.1927 -3.8059 -0.2383 -0.016045 0.00298877 0.000863327 -0.1091 -2.1688 -0.1362 8.57223e-007 8.04326e-006 -2.10657e-006 -0.6151 -8.0947 -3.5641 1.59028e-015 3.18055e-015 -1.98785e-015 -0.4882 -2.341 -0.6462 -0.0125552 0.00311856 0.00281758 -0.3575 -1.7167 -0.4742 -7.01212e-006 8.40404e-006 5.14135e-006 -1.42 -1.8761 1.4223 1.59028e-015 3.18055e-015 -1.98785e-015 -1.1471 -3.4929 2.6334 2.38542e-015 0 -3.18055e-015 -0.823 -2.3 1.6571 1.59028e-015 3.18055e-015 1.98785e-015 -2.2603 21.606 7.4023 48.671 -11.118 0.13347 -13.5187 -1.1334 -5.0155 -55.1918 -7.05888 -54.7742 0.0994 -28.0499 -0.2431 -40.7708 -41.011 -25.2093 -0.0679 -23.3996 -0.1402 0.677961 -32.365 -6.80898 -0.7932 -9.0691 2.5189 -1.98785e-016 2.38542e-015 -0 0.8272 -3.3923 0.5977 -9.44227e-016 1.59028e-015 -0 0.565 -2.3158 0.4082 -4.96962e-016 1.59028e-015 3.97569e-016 -0.916 -9.2044 0.2193 -1.98785e-016 2.38542e-015 -0 -0.0117 -4.1944 -0.0248 0.0129546 0.00231692 -8.5427e-005 -0.0071 -2.3249 -0.0142 -1.2921e-015 -7.95139e-016 3.97569e-016 -0.6113 -8.7231 -2.0637 -1.98785e-016 2.38542e-015 -0 0.1927 -3.8059 -0.2383 0.0163337 0.00303435 -0.000872908 0.1091 -2.1688 -0.1362 -3.47873e-016 -1.59028e-015 -0 0.6151 -8.0947 -3.564 -1.98785e-016 2.38542e-015 -0 0.4882 -2.341 -0.6462 0.0145839 0.00367663 -0.00326156 0.3574 -1.7166 -0.4742 -1.2921e-015 -1.59028e-015 7.95139e-016 1.4199 -1.8761 1.4221 -1.98785e-016 2.38542e-015 -0 1.1472 -3.4929 2.6336 -9.44227e-016 1.59028e-015 -0 0.8229 -2.3 1.6571 -4.96962e-016 1.59028e-015 3.97569e-016 -9.412 3.9771 -0.7758 -5.6847 5.10704 -45.6772 -0.7531 -40.938 1.77636e-015 7.3841 24.4183 -22.0995 0 -40.1986 -3.55271e-015 -4.9578 38.2825 -0.787242 -3.55271e-015 -4.4182 9.239 -1.91326e-006 -4.09846e-006 -2.82039e-006 9.4119 3.9773 -0.7758 3.14594 10.3915 46.6092 0.7532 -40.9383 7.10543e-015 -5.22819 10.2316 20.7354 0 -40.1986 0 5.55415 36.0204 -5.21091 -3.55271e-015 -4.4182 9.239 -8.89709e-007 4.63765e-006 3.38225e-006 
